# xmcd
#
# Track frame offsets: 
#        150
#        14809
#        27974
#        41614
#        55800
#        63947
#        71760
#        82176
#        94086
#        106946
#        119766
#        133604
#        145982
#        157123
#        171568
#        183135
#        196928
#        209055
#        222204
#        233837
#        244983
#        258535
#        270705
#        283802
#        297626
#
# Disc length: 4141 seconds
#
# Revision: 2
# Processed by: cddbd v1.5.2PL0 Copyright (c) Steve Scherf et al.
# Submitted via: ExactAudioCopyFreeDBPlugin 1.0
#
DISCID=99102b19
DTITLE=Big Joe Turner - Big Joe Turner:  All the Classic Hits, 1938-19
DTITLE=52 [JSP Records]
DYEAR=2003
DGENRE=Rhythm and Blues
TTITLE0=Milk and Butter Blues
TTITLE1=That's When it Really Hurts
TTITLE2=I'm in Sharp When I Hit the Coast
TTITLE3=New Ooh Wee Baby Blues
TTITLE4=Around the Clock, Part 1
TTITLE5=Around the Clock, Part 2
TTITLE6=I Don't Dig It
TTITLE7=Ooo-Ouch-Stop
TTITLE8=Battle of the Blues, Part 1
TTITLE9=Battle of the Blues, Part 2
TTITLE10=Going Home
TTITLE11=Blues
TTITLE12=Morning Glory
TTITLE13=Nobody in Mind
TTITLE14=Low Down Dog
TTITLE15=Back Breaking Blues
TTITLE16=Empty Pocket Blues
TTITLE17=Roll 'em Pete
TTITLE18=Ice Man Blues
TTITLE19=Nobody in Mind
TTITLE20=Lucille, Lucille
TTITLE21=Rocks in My Bed
TTITLE22=Careless Love
TTITLE23=Last Goodbye Blues
TTITLE24=Whistle Stop
EXTD=
EXTT0=
EXTT1=
EXTT2=
EXTT3=
EXTT4=
EXTT5=
EXTT6=
EXTT7=
EXTT8=
EXTT9=
EXTT10=
EXTT11=
EXTT12=
EXTT13=
EXTT14=
EXTT15=
EXTT16=
EXTT17=
EXTT18=
EXTT19=
EXTT20=
EXTT21=
EXTT22=
EXTT23=
EXTT24=
PLAYORDER=
